<svg width="74" height="39" viewBox="0 0 74 39" fill="none" xmlns="http://www.w3.org/2000/svg">
<g clip-path="url(#clip0_394_574)">
<path d="M0 22.3895H5.63181L8.76134 6.86532H3.12878L0 22.3895ZM3.43908 5.01374H9.09448L10.0239 0.368992H4.37072L3.43908 5.01374ZM7.82233 26.7578H13.4549L16.8962 9.98558H21.1202L21.743 6.86532H17.6001L17.7571 6.16335C17.9914 4.84027 18.4609 3.35474 20.5726 3.35474C21.8256 3.35474 22.9982 3.43266 24.1709 3.9788L24.7974 0.702702C23.4905 0.242839 22.1154 0.00529663 20.7296 0C16.1923 0 13.0642 2.65277 11.8901 6.86532H9.93472L9.30896 9.98558H11.2644L7.82233 26.7578Z" fill="#D6DBDF"/>
<path d="M25.6575 22.7018C32.3064 22.7018 36.9219 16.6943 36.9219 11.7798C36.9219 8.1134 33.558 6.5529 30.2729 6.5529C22.996 6.5529 19.0086 13.0316 19.0086 17.4749C19.0086 21.1413 22.4506 22.7018 25.6575 22.7018ZM43.4942 22.7018C50.1431 22.7018 54.7585 16.6943 54.7585 11.7798C54.7585 8.1134 51.3165 6.5529 48.0307 6.5529C40.756 6.5529 36.7671 13.0279 36.7671 17.4749C36.7671 21.1413 40.2872 22.7018 43.4942 22.7018ZM63.9105 22.3894H69.4642L74 0.315308H68.3682L67.0378 6.86823L64.691 6.63449C59.2155 6.63449 54.2094 13.6549 54.2094 18.6481C54.2094 20.676 55.5361 22.7048 57.8077 22.7048C61.0146 22.7048 63.2833 21.1443 64.22 19.5838H64.5326L63.9105 22.3894ZM46.5433 34.0134C42.1718 37.6256 36.5569 39.3895 30.8987 38.9279C23.467 38.4597 18.1477 32.7646 17.2094 26.7578H17.5219C19.2429 30.5065 23.3889 34.0134 28.4738 34.5588C33.6331 35.1829 39.8163 32.8432 43.1794 29.6443L39.4249 26.7578H50.7674L48.2614 38.7721L46.6185 34.0913L46.5433 34.0134Z" fill="#D6DBDF"/>
</g>
<defs>
<clipPath id="clip0_394_574">
<rect width="74" height="39" fill="white"/>
</clipPath>
</defs>
</svg>
