<svg width="36" height="38" viewBox="0 0 36 38" fill="none" xmlns="http://www.w3.org/2000/svg">
<g clip-path="url(#clip0_408_406)">
<path d="M18 36.5949C27.7335 36.5949 35.624 28.7043 35.624 18.9709C35.624 9.23739 27.7335 1.34685 18 1.34685C8.26652 1.34685 0.375977 9.23739 0.375977 18.9709C0.375977 28.7043 8.26652 36.5949 18 36.5949Z" stroke="#D6DBDF" stroke-width="0.751958" stroke-miterlimit="10"/>
<path d="M22.4854 28.7313C29.3191 28.7313 34.8589 23.1915 34.8589 16.3578C34.8589 9.52412 29.3191 3.98433 22.4854 3.98433C15.6517 3.98433 10.1119 9.52412 10.1119 16.3578C10.1119 23.1915 15.6517 28.7313 22.4854 28.7313Z" stroke="#D6DBDF" stroke-width="0.877911" stroke-miterlimit="10"/>
<path d="M13.5146 28.7313C20.3483 28.7313 25.8881 23.1915 25.8881 16.3578C25.8881 9.52412 20.3483 3.98433 13.5146 3.98433C6.68091 3.98433 1.14111 9.52412 1.14111 16.3578C1.14111 23.1915 6.68091 28.7313 13.5146 28.7313Z" stroke="#D6DBDF" stroke-width="0.877911" stroke-miterlimit="10"/>
<path d="M18.0001 36.5911C24.8337 36.5911 30.3735 31.0513 30.3735 24.2177C30.3735 17.384 24.8337 11.8442 18.0001 11.8442C11.1664 11.8442 5.62659 17.384 5.62659 24.2177C5.62659 31.0513 11.1664 36.5911 18.0001 36.5911Z" stroke="#D6DBDF" stroke-width="0.877911" stroke-miterlimit="10"/>
<path d="M10.2398 14.5775C11.0256 13.9459 13.8417 11.8385 18.0132 11.8442C22.1659 11.8498 24.9669 13.944 25.7546 14.5775C25.905 15.6021 26.2659 18.969 24.277 22.4731C22.2035 26.1257 18.9381 27.5244 17.9981 27.8891C16.9962 27.4981 14.0165 26.184 11.9693 22.8867C9.69652 19.2265 10.0969 15.5758 10.2398 14.5757V14.5775Z" stroke="#D6DBDF" stroke-width="0.877911" stroke-miterlimit="10"/>
<path d="M12.9468 16.4217C13.4581 16.01 15.2929 14.6377 18.0093 14.6415C20.7145 14.6452 22.538 16.0081 23.0512 16.4217C23.149 17.0891 23.384 19.2829 22.0887 21.5651C20.739 23.9432 18.6109 24.8549 17.9981 25.0937C17.3457 24.838 15.4057 23.9845 14.071 21.8358C12.5915 19.4521 12.8509 17.074 12.9449 16.4217H12.9468Z" stroke="#D6DBDF" stroke-width="0.877911" stroke-miterlimit="10"/>
<path d="M15.6708 18.2791C15.9058 18.0892 16.7518 17.4575 18.0038 17.4594C19.2501 17.4594 20.0905 18.0892 20.3273 18.2791C20.3724 18.5874 20.4815 19.5969 19.8837 20.6496C19.2614 21.7456 18.282 22.1667 17.9981 22.2757C17.6974 22.1573 16.8025 21.7644 16.1878 20.7737C15.5054 19.6758 15.6257 18.5798 15.6689 18.2791H15.6708Z" stroke="#D6DBDF" stroke-width="0.877911" stroke-miterlimit="10"/>
</g>
<defs>
<clipPath id="clip0_408_406">
<rect width="36" height="36.0583" fill="white" transform="translate(0 0.970856)"/>
</clipPath>
</defs>
</svg>
