<svg width="74" height="63" viewBox="0 0 74 63" fill="none" xmlns="http://www.w3.org/2000/svg">
<g clip-path="url(#clip0_394_577)">
<path d="M56.752 14.4727C56.752 6.50065 46.9941 0 34.9561 0C22.918 0 13.1609 6.50065 13.1609 14.4727C13.1609 14.6788 13.1609 15.248 13.1609 15.3209C13.1609 23.7797 21.6905 30.6299 34.9553 30.6299C48.3028 30.6299 56.7543 23.7813 56.7543 15.3217L56.752 14.4727Z" fill="#060E2C"/>
<path d="M55.918 14.4655C55.918 21.9825 46.5349 28.0757 34.9592 28.0757C23.3834 28.0757 14.0027 21.9825 14.0027 14.4655C14.0027 6.94858 23.3858 0.854614 34.9592 0.854614C46.5326 0.854614 55.918 6.94858 55.918 14.4655Z" fill="#D6DBDF"/>
<path d="M28.0007 10.1711C27.9906 10.1933 27.7813 10.409 27.9156 10.5889C28.2475 11.0178 29.2689 11.2644 30.302 11.0289C30.9165 10.8886 31.7076 10.252 32.4689 9.63682C33.2967 8.96931 34.1181 8.30101 34.9428 8.03464C35.8173 7.75163 36.3764 7.87609 36.7466 7.98787C37.1526 8.11075 37.6305 8.38425 38.3911 8.96138C39.8264 10.0554 45.5924 15.1655 46.5903 16.0495C47.3923 15.6808 50.9586 14.1223 55.8047 13.037C55.383 10.4137 53.8119 8.01403 51.4318 6.05036C48.1021 7.46703 44.0455 8.20667 40.0755 6.23745C40.0552 6.22952 37.907 5.19656 35.7869 5.24729C32.6407 5.32181 31.2742 6.70597 29.8296 8.17021L28.0007 10.1711Z" fill="#D6DBDF"/>
<path d="M46.3538 16.6044C46.2858 16.5433 39.5742 10.5794 38.053 9.42036C37.1737 8.74969 36.6834 8.57924 36.1695 8.51344C35.8686 8.48814 35.5655 8.5174 35.2747 8.59985C34.5664 8.79487 33.6411 9.42274 32.8211 10.0839C31.97 10.772 31.168 11.4197 30.4246 11.5902C29.4743 11.8066 28.3162 11.5513 27.7845 11.1882C27.5958 11.071 27.4436 10.902 27.3456 10.7007C27.1512 10.2393 27.5104 9.87144 27.5705 9.8104L29.422 7.77617C29.6375 7.55737 29.8546 7.33936 30.0771 7.12532C29.506 7.21173 28.942 7.34077 28.3896 7.51139C27.7181 7.70245 27.0723 7.88478 26.4195 7.88478C26.1462 7.88478 24.6859 7.6414 24.4087 7.56768C22.7322 7.10153 21.261 6.64887 19.0644 5.60718C16.4305 7.59622 14.6688 10.0847 14.1605 12.8261C14.5384 12.9283 15.1491 13.1123 15.4044 13.1693C21.3633 14.517 23.2202 15.9012 23.5568 16.1905C23.7545 15.9639 24.0004 15.7857 24.2759 15.6695C24.5513 15.5533 24.8492 15.5022 25.1469 15.5199C25.4447 15.5376 25.7346 15.6237 25.9948 15.7718C26.255 15.9198 26.4787 16.1259 26.6491 16.3745C27.0509 16.0444 27.5526 15.8652 28.0695 15.8671C28.3595 15.8699 28.647 15.921 28.9206 16.0185C29.1862 16.1048 29.4306 16.2476 29.6376 16.4373C29.8445 16.6271 30.0093 16.8594 30.1208 17.1189C30.3809 16.9989 30.6637 16.9381 30.9494 16.9405C31.2912 16.9449 31.6284 17.0205 31.9403 17.1625C33.0398 17.6381 33.21 18.7361 33.1116 19.5622C33.1894 19.553 33.2676 19.5485 33.3459 19.5487C33.7544 19.5485 34.1559 19.656 34.5113 19.8606C34.8666 20.0651 35.1636 20.3598 35.3732 20.7158C35.5827 21.0718 35.6977 21.4769 35.7068 21.8915C35.716 22.3061 35.619 22.7161 35.4254 23.0812C35.7783 23.2826 36.6834 23.7408 37.4759 23.6362C38.11 23.5569 38.3505 23.3341 38.4372 23.2113C38.495 23.1248 38.5582 23.0273 38.5005 22.9552L36.8216 21.0557C36.8216 21.0557 36.5444 20.7909 36.6357 20.6879C36.7271 20.5848 36.9012 20.7339 37.0223 20.8361C37.8812 21.5615 38.9237 22.6595 38.9237 22.6595C38.9409 22.6722 39.0104 22.8093 39.3969 22.8799C39.7288 22.9409 40.3168 22.9052 40.7244 22.5628C40.8316 22.4715 40.9294 22.3695 41.0165 22.2583C41.0109 22.2644 41.0046 22.2697 40.9977 22.2742C41.4272 21.7153 40.9493 21.1509 40.9493 21.1509L38.9869 18.9121C38.9869 18.9121 38.7058 18.6497 38.8019 18.5435C38.8862 18.4515 39.0682 18.5902 39.1923 18.6933C39.817 19.2213 40.6924 20.1155 41.535 20.9527C41.6997 21.0748 42.4392 21.5401 43.4184 20.8869C44.0135 20.4905 44.1322 20.0045 44.1158 19.6375C44.0744 19.1523 43.7011 18.8059 43.7011 18.8059L41.0196 16.0693C41.0196 16.0693 40.7361 15.8243 40.8361 15.6998C40.9181 15.596 41.1016 15.7466 41.2218 15.8481C42.0808 16.5742 44.3891 18.7266 44.3891 18.7266C44.4211 18.7496 45.2199 19.3267 46.2085 18.6885C46.5607 18.4602 46.7871 18.1154 46.8067 17.7134C46.8144 17.5065 46.7782 17.3002 46.7004 17.1087C46.6227 16.9172 46.5052 16.7449 46.3561 16.6036" fill="#D6DBDF"/>
<path d="M33.3474 20.0735C32.932 20.0687 32.4767 20.32 32.4182 20.2828C32.3838 20.2606 32.4432 20.0917 32.4822 19.9934C32.5213 19.8951 33.0694 18.2248 31.7341 17.6429C30.7135 17.1981 30.0888 17.6984 29.8733 17.9259C29.8186 17.9846 29.7952 17.9798 29.7866 17.9037C29.7655 17.6033 29.6304 16.7875 28.7512 16.5156C27.4924 16.124 26.6811 17.0158 26.4773 17.3377C26.4346 17.0074 26.2835 16.7013 26.0483 16.4689C25.8131 16.2366 25.5076 16.0915 25.1812 16.0572C24.8548 16.0229 24.5265 16.1013 24.2495 16.2798C23.9724 16.4583 23.7627 16.7264 23.6542 17.0408C23.5458 17.3553 23.5449 17.6976 23.6518 18.0126C23.7587 18.3276 23.9671 18.5968 24.2433 18.7767C24.5196 18.9565 24.8474 19.0366 25.174 19.0039C25.5006 18.9713 25.8068 18.8277 26.0431 18.5966C26.0509 18.6053 26.054 18.6188 26.0509 18.6473C25.9892 19.0144 25.876 20.3486 27.2519 20.8924C27.8032 21.1088 28.2733 20.9479 28.6621 20.6704C28.7777 20.5872 28.7965 20.6221 28.7801 20.7331C28.7301 21.0763 28.7933 21.8104 29.8077 22.229C30.5808 22.5461 31.0376 22.2219 31.3359 21.9397C31.4671 21.82 31.5022 21.839 31.5092 22.0261C31.5256 22.3915 31.6473 22.744 31.8592 23.0398C32.0711 23.3356 32.3639 23.5617 32.7013 23.6901C33.0386 23.8185 33.4057 23.8435 33.757 23.762C34.1082 23.6806 34.4281 23.4962 34.6771 23.2317C34.926 22.9673 35.093 22.6345 35.1573 22.2746C35.2216 21.9147 35.1804 21.5435 35.0388 21.2072C34.8972 20.8708 34.6614 20.5841 34.3607 20.3826C34.0601 20.181 33.7077 20.0736 33.3474 20.0735Z" fill="#D6DBDF"/>
<path d="M33.3474 23.6751C32.9074 23.6777 32.4836 23.5065 32.1655 23.1978C31.8474 22.8891 31.66 22.467 31.6428 22.0206C31.6428 21.9413 31.6326 21.7304 31.4562 21.7304C31.3762 21.74 31.3025 21.7793 31.2492 21.8406C31.0462 22.0325 30.7885 22.2259 30.4121 22.2259C30.222 22.2218 30.0346 22.1803 29.86 22.1038C28.8871 21.7074 28.8746 21.0256 28.9136 20.7561C28.9232 20.7208 28.9249 20.6838 28.9187 20.6478C28.9125 20.6117 28.8985 20.5775 28.8777 20.5476L28.8183 20.4945H28.7574C28.6954 20.4988 28.6364 20.5229 28.5888 20.5635C28.3513 20.7491 28.0622 20.8537 27.7626 20.8623C27.6047 20.8608 27.4484 20.8294 27.3019 20.7696C26.0212 20.2638 26.1212 19.0366 26.1837 18.6672C26.1903 18.6363 26.1888 18.6041 26.1792 18.574C26.1696 18.544 26.1522 18.517 26.129 18.4959L26.0376 18.4167L25.9533 18.4999C25.7379 18.7117 25.4584 18.8434 25.1601 18.8738C24.8618 18.9042 24.5621 18.8315 24.3096 18.6675C24.057 18.5035 23.8664 18.2577 23.7686 17.97C23.6707 17.6823 23.6714 17.3694 23.7705 17.0822C23.8696 16.7949 24.0613 16.55 24.3146 16.3871C24.5679 16.2242 24.8679 16.1529 25.1661 16.1846C25.4642 16.2164 25.7431 16.3494 25.9576 16.5621C26.172 16.7749 26.3095 17.0548 26.3476 17.3567L26.3937 17.7182L26.5897 17.4114C26.6116 17.3758 27.1496 16.5505 28.1374 16.5521C28.3334 16.5531 28.5282 16.5838 28.7153 16.6433C29.5024 16.8874 29.6359 17.6136 29.657 17.9117C29.6711 18.0877 29.7944 18.0964 29.8186 18.0964C29.8486 18.0947 29.8779 18.0868 29.9048 18.0731C29.9317 18.0595 29.9555 18.0404 29.9748 18.0171C30.101 17.8837 30.2526 17.7779 30.4205 17.7061C30.5883 17.6342 30.7688 17.5979 30.9509 17.5993C31.2041 17.6039 31.4536 17.6611 31.6842 17.7674C32.9336 18.3128 32.369 19.9285 32.362 19.9451C32.2542 20.2123 32.2503 20.3296 32.3518 20.3986L32.4002 20.4224H32.4377C32.5209 20.4123 32.6024 20.3907 32.6798 20.3581C32.893 20.2725 33.1185 20.2222 33.3474 20.2091C33.5747 20.2042 33.8007 20.2453 34.0121 20.3302C34.2235 20.4151 34.4161 20.542 34.5786 20.7035C34.741 20.8649 34.8701 21.0577 34.9582 21.2704C35.0464 21.4832 35.0917 21.7117 35.0917 21.9425C35.0917 22.1733 35.0464 22.4018 34.9582 22.6145C34.8701 22.8273 34.741 23.02 34.5786 23.1815C34.4161 23.3429 34.2235 23.4698 34.0121 23.5547C33.8007 23.6396 33.5747 23.6808 33.3474 23.6758M46.6138 15.8909C44.546 14.0596 39.767 9.84136 38.4731 8.85596C37.7329 8.29151 37.23 7.99264 36.7864 7.85866C36.5186 7.7732 36.2395 7.72937 35.9587 7.72865C35.6007 7.7327 35.2454 7.7926 34.9053 7.90623C34.069 8.17577 33.2358 8.84803 32.4299 9.49809L32.3885 9.53139C31.6381 10.1379 30.8619 10.7641 30.2747 10.8981C30.0183 10.9561 29.7565 10.9856 29.4938 10.9861C28.8363 10.9861 28.2444 10.7927 28.0234 10.5057C27.9867 10.4581 28.0109 10.3812 28.0968 10.2679L28.107 10.2528L29.9264 8.26297C31.35 6.81777 32.6954 5.45422 35.7924 5.38207H35.9485C37.8765 5.38207 39.8053 6.25966 40.0208 6.36114C41.8286 7.25696 43.691 7.70883 45.5698 7.71279C47.522 7.71279 49.5421 7.22207 51.6606 6.23112C51.4264 6.02897 51.1773 5.83474 50.9235 5.63893C49.0611 6.45864 47.2854 6.87247 45.5729 6.87167C43.8237 6.87167 42.0769 6.44438 40.38 5.60325C40.291 5.55886 38.1616 4.54095 35.947 4.54016H35.7729C33.1717 4.60279 31.7053 5.53983 30.7198 6.36351C29.7616 6.3873 28.9347 6.62275 28.1983 6.82966C27.5424 7.01596 26.9755 7.17689 26.421 7.17609C26.1946 7.17609 25.7838 7.15469 25.7479 7.1539C25.1115 7.13408 21.9068 6.33656 19.3588 5.35591C19.0987 5.5438 18.8481 5.73723 18.6044 5.93384C21.2672 7.0437 24.5079 7.8983 25.5301 7.96569C25.8143 7.98471 26.1173 8.01721 26.4203 8.0188C27.0965 8.0188 27.772 7.82616 28.4248 7.63986C28.8152 7.52967 29.2377 7.41075 29.6859 7.32276C29.5656 7.44088 29.447 7.56058 29.3267 7.68346L27.4791 9.71372C27.3339 9.86197 27.0176 10.2591 27.2261 10.7499C27.3333 10.9755 27.5018 11.1654 27.7118 11.2969C28.153 11.5989 28.9417 11.8019 29.6742 11.8019C29.9367 11.8038 30.1987 11.7759 30.4551 11.7186C31.2297 11.5426 32.0426 10.8854 32.9023 10.191C33.5895 9.63603 34.5633 8.93523 35.309 8.72912C35.5279 8.66992 35.7532 8.63849 35.9798 8.63557C36.0374 8.63571 36.095 8.63888 36.1524 8.64508C36.6467 8.7093 37.1222 8.88291 37.9734 9.52743C39.4906 10.6849 46.2031 16.6464 46.2694 16.7051C46.403 16.8333 46.5081 16.9891 46.5776 17.1619C46.647 17.3347 46.6794 17.5206 46.6724 17.7071C46.6567 18.0552 46.4662 18.3636 46.1359 18.5792C45.8746 18.7556 45.5689 18.8522 45.2551 18.8574C44.9788 18.8574 44.7081 18.7783 44.4742 18.6291C44.4492 18.6085 42.1503 16.4673 41.3038 15.7474C41.1695 15.6341 41.0375 15.5318 40.9063 15.5318C40.8726 15.5313 40.8391 15.5386 40.8086 15.5532C40.778 15.5677 40.7511 15.5892 40.7299 15.6158C40.5963 15.7831 40.7455 16.0122 40.922 16.1652L43.6082 18.9066C43.6082 18.9106 43.9432 19.2237 43.9791 19.6462C44.001 20.1005 43.7862 20.4802 43.3411 20.7767C43.0615 20.9758 42.7299 21.0862 42.3885 21.0938C42.1159 21.0925 41.8498 21.0098 41.6232 20.856L41.2374 20.4699C40.5347 19.7667 39.8061 19.0429 39.2743 18.5879C39.1439 18.4785 39.0049 18.377 38.8729 18.377C38.8414 18.3768 38.8101 18.3831 38.781 18.3955C38.7518 18.4079 38.7255 18.4262 38.7035 18.4492C38.6434 18.5189 38.6004 18.6418 38.7519 18.8455C38.7932 18.9001 38.8386 18.9512 38.8878 18.9986L40.8478 21.2349C40.865 21.2548 41.2523 21.7209 40.8923 22.1862L40.8228 22.2758C40.7661 22.3391 40.7053 22.3984 40.6409 22.4534C40.3059 22.7325 39.86 22.7618 39.6827 22.7618C39.594 22.7626 39.5054 22.7551 39.418 22.7396C39.2243 22.7047 39.0947 22.6492 39.0315 22.5739L39.008 22.5493C38.9011 22.4368 37.9148 21.4125 37.0949 20.7188C36.9871 20.6277 36.8528 20.5127 36.713 20.5127C36.6798 20.5125 36.6468 20.5194 36.6164 20.5331C36.5859 20.5467 36.5587 20.5668 36.5366 20.592C36.3749 20.772 36.6146 21.0415 36.7208 21.139L38.3935 23.0115C38.378 23.0524 38.3564 23.0907 38.3294 23.1249C38.2693 23.2105 38.0663 23.4166 37.4603 23.4935C37.3868 23.5028 37.3127 23.5073 37.2386 23.507C36.6139 23.507 35.9454 23.1986 35.5987 23.0139C35.7569 22.6798 35.8402 22.3143 35.8424 21.9437C35.8424 21.2718 35.5798 20.6274 35.1124 20.1518C34.645 19.6762 34.0108 19.4083 33.349 19.4068H33.2592C33.3029 18.7726 33.2147 17.5605 31.9934 17.0285C31.6654 16.879 31.3105 16.7996 30.9509 16.7955C30.6897 16.7938 30.4304 16.8417 30.1864 16.9366C30.0611 16.6881 29.8887 16.4671 29.6791 16.2863C29.4696 16.1056 29.2269 15.9685 28.9651 15.883C28.6779 15.7801 28.3757 15.7265 28.071 15.7244C27.5708 15.7214 27.0824 15.8796 26.6764 16.1763C26.4918 15.9415 26.2604 15.7489 25.9974 15.6111C25.7344 15.4733 25.4457 15.3934 25.1502 15.3767C24.8548 15.3599 24.5591 15.4066 24.2826 15.5138C24.0062 15.621 23.7551 15.7863 23.5458 15.9987C23.0258 15.5952 20.9596 14.2634 15.4341 12.9862C15.167 12.9244 14.5525 12.7484 14.1761 12.6335C14.114 12.9377 14.0671 13.2449 14.0355 13.5539C14.0355 13.5539 15.0507 13.8028 15.2553 13.8488C20.8994 15.1212 22.7657 16.4451 23.0804 16.6948C22.9467 17.0211 22.8943 17.3759 22.928 17.7277C22.9616 18.0795 23.0803 18.4174 23.2734 18.7115C23.4664 19.0057 23.728 19.2469 24.0349 19.4138C24.3418 19.5807 24.6845 19.6682 25.0326 19.6684C25.1636 19.6691 25.2943 19.6572 25.4231 19.6328C25.5996 20.5048 26.161 21.1644 27.0192 21.5037C27.2596 21.5996 27.5153 21.6498 27.7735 21.6519C27.936 21.652 28.0979 21.6315 28.2553 21.5909C28.4115 21.9999 28.7699 22.5089 29.568 22.8371C29.831 22.9491 30.1129 23.0084 30.3981 23.0115C30.6182 23.0117 30.8365 22.9722 31.0431 22.895C31.1994 23.2837 31.4487 23.6268 31.7683 23.8933C32.0879 24.1598 32.4678 24.3414 32.8738 24.4216C33.2798 24.5018 33.699 24.4782 34.0938 24.3529C34.4885 24.2275 34.8463 24.0044 35.1349 23.7036C35.537 23.9311 36.3843 24.3426 37.2432 24.3434C37.35 24.3426 37.4566 24.3358 37.5626 24.3227C38.4161 24.2133 38.812 23.874 38.9955 23.6093C39.0285 23.5628 39.0578 23.5138 39.083 23.4626C39.3025 23.5308 39.5305 23.5669 39.76 23.5696C40.2285 23.5696 40.6729 23.4111 41.1242 23.0749C41.5756 22.7388 41.884 22.2822 41.9293 21.8858C41.9301 21.8797 41.9301 21.8736 41.9293 21.8676C42.0796 21.8992 42.2326 21.9152 42.3861 21.9151C42.8884 21.9093 43.3777 21.752 43.7917 21.4632C44.6616 20.8853 44.8123 20.129 44.7983 19.6336C44.9505 19.6661 45.1057 19.6826 45.2613 19.6827C45.7289 19.6773 46.1849 19.5349 46.5748 19.2728C46.8329 19.1125 47.0501 18.8924 47.2086 18.6307C47.3671 18.3689 47.4624 18.0729 47.4868 17.7666C47.5193 17.3397 47.4182 16.9133 47.1979 16.5481C48.6542 15.9139 51.9847 14.6772 55.9055 13.7798C55.8798 13.4722 55.8389 13.166 55.7829 12.8626C52.6371 13.5685 49.5659 14.5817 46.6122 15.8878" fill="#060E2C"/>
<path d="M70.6305 44.3447C70.2192 44.8991 69.6304 45.1758 68.8641 45.1748C68.0978 45.1737 67.507 44.897 67.0915 44.3447C66.6777 43.7914 66.471 43.0042 66.4715 41.9831C66.472 40.962 66.6787 40.1767 67.0915 39.627C67.508 39.0768 68.0989 38.8017 68.8641 38.8017C69.6294 38.8017 70.2182 39.0768 70.6305 39.627C71.0412 40.1788 71.2469 40.9641 71.2474 41.9831C71.2479 43.0021 71.0423 43.7893 70.6305 44.3447ZM72.7287 38.1652C71.8833 37.0886 70.5982 36.5503 68.8735 36.5503C67.1488 36.5503 65.863 37.0886 65.016 38.1652C64.169 39.2417 63.7452 40.5144 63.7447 41.9831C63.7447 43.4772 64.1684 44.7556 65.016 45.8185C65.8635 46.8813 67.1493 47.4109 68.8735 47.4072C70.5998 47.4072 71.8859 46.8771 72.7318 45.8169C73.5778 44.7567 74.0015 43.4782 74.0031 41.9815C74.0031 40.5138 73.5793 39.2412 72.7318 38.1636" fill="#D6DBDF"/>
<path d="M49.7522 43.0866C49.7342 43.9816 49.4812 44.5928 48.9986 44.9337C48.5334 45.2652 47.9786 45.4424 47.4103 45.4411C47.0766 45.4506 46.7499 45.3424 46.4857 45.1351C46.232 44.9322 46.1062 44.6016 46.1062 44.1465C46.1062 43.6336 46.3124 43.2562 46.7309 43.0121C46.9754 42.8694 47.3791 42.7457 47.9397 42.6474L48.5387 42.5356C48.7775 42.4927 49.0125 42.4304 49.2415 42.3493C49.4199 42.283 49.5909 42.1974 49.7514 42.0941L49.7522 43.0866ZM51.0859 37.2646C50.2269 36.8233 49.2448 36.6018 48.1396 36.6002C46.4373 36.6002 45.2371 37.0495 44.539 37.9479C44.1007 38.5235 43.8531 39.2581 43.7964 40.1518H46.3374C46.3998 39.7554 46.5232 39.4446 46.7122 39.214C46.9725 38.9016 47.4181 38.7454 48.0491 38.7454C48.6121 38.7454 49.0377 38.8247 49.3274 38.9833C49.6171 39.1418 49.7623 39.432 49.7623 39.8505C49.7623 40.1946 49.5733 40.4459 49.1954 40.6092C48.9846 40.7036 48.6347 40.7812 48.1435 40.847L47.2432 40.9596C46.221 41.0896 45.4472 41.31 44.9185 41.616C43.9565 42.1789 43.4752 43.0882 43.4747 44.3439C43.4747 45.3121 43.774 46.06 44.3727 46.5874C44.9685 47.1162 45.7267 47.3374 46.6427 47.3802C52.3876 47.6402 52.3228 44.3067 52.3759 43.613V39.7784C52.3759 38.5475 51.9462 37.7096 51.0867 37.2646" fill="#D6DBDF"/>
<path d="M37.9882 38.8858C38.6441 38.8858 39.1275 39.0914 39.4383 39.5026C39.6519 39.8079 39.7886 40.1618 39.8365 40.5331H42.6711C42.515 39.0834 42.0147 38.0708 41.1703 37.4953C40.3259 36.9197 39.2397 36.6325 37.9117 36.6335C36.3499 36.6335 35.1265 37.1192 34.2415 38.0906C33.3565 39.062 32.9125 40.4219 32.9094 42.1702C32.9094 43.7182 33.3113 44.9784 34.115 45.9509C34.9188 46.9233 36.1714 47.4088 37.8726 47.4072C39.576 47.4072 40.8618 46.8242 41.7302 45.6583C42.2747 44.9364 42.579 44.1701 42.643 43.3593H39.817C39.7592 43.8952 39.5945 44.3313 39.3196 44.6674C39.0447 45.0035 38.5895 45.1724 37.9406 45.1724C37.0264 45.1724 36.4035 44.7496 36.0719 43.904C35.8915 43.4513 35.7986 42.8512 35.7986 42.106C35.7986 41.3235 35.8915 40.6965 36.0719 40.2216C36.4155 39.3321 37.0543 38.8868 37.9882 38.8858Z" fill="#D6DBDF"/>
<path d="M32.1488 36.6335C26.3281 36.6335 26.6725 41.8658 26.6725 41.8658V47.1773H29.3134V42.1948C29.3134 41.3782 29.4144 40.7736 29.6164 40.3809C29.9795 39.6833 30.687 39.3337 31.7443 39.3337C31.8224 39.3337 31.9278 39.3384 32.0567 39.344C32.1855 39.3495 32.3315 39.3622 32.4994 39.3813V36.6534C32.3823 36.6454 32.3058 36.6423 32.2745 36.6391C32.2433 36.6359 32.1964 36.6335 32.1488 36.6335Z" fill="#D6DBDF"/>
<path d="M18.8973 39.4106C19.2685 39.0232 19.7904 38.8292 20.463 38.8287C21.0825 38.8287 21.6015 39.0115 22.02 39.3773C22.4386 39.743 22.6713 40.2794 22.7181 40.9866H18.1945C18.289 40.323 18.5233 39.7974 18.8973 39.4106ZM22.4472 44.405C22.3459 44.5569 22.2242 44.6938 22.0856 44.8116C21.7116 45.1224 21.2056 45.2175 20.609 45.2175C20.0444 45.2175 19.6032 45.1303 19.2034 44.8751C18.5451 44.4636 18.1742 43.7652 18.1336 42.7457H25.4434C25.452 41.8665 25.4254 41.1927 25.3552 40.725C25.2497 39.9702 24.9765 39.2496 24.5563 38.6178C24.1301 37.9596 23.5291 37.4374 22.8228 37.1115C22.0784 36.7853 21.2744 36.6232 20.4637 36.6359C18.9915 36.6359 17.7942 37.1065 16.8717 38.0478C15.9492 38.9891 15.488 40.342 15.488 42.1067C15.488 43.9909 15.9987 45.3505 17.0201 46.1855C18.0158 47.0127 19.267 47.4568 20.5535 47.4396C22.1705 47.4396 23.4293 46.9442 24.3299 45.9532C24.814 45.4308 25.117 44.9163 25.2451 44.4065L22.4472 44.405Z" fill="#D6DBDF"/>
<path d="M14.4299 47.1789H12.0169V41.0104C12.0169 40.4475 11.8334 39.1077 10.2428 39.1077C9.18079 39.1077 8.41397 39.8831 8.41397 41.0104V47.1789H5.99715V41.0104C5.99715 40.4475 5.83395 39.1077 4.24252 39.1077C3.16256 39.1077 2.4137 39.8831 2.4137 41.0104V47.1789H0V41.0698C0 38.5227 1.66405 36.5979 4.24252 36.5979C5.52316 36.5979 6.56563 37.1441 7.24343 38.0177C7.60775 37.5693 8.06608 37.2091 8.58498 36.9635C9.10389 36.7179 9.67027 36.5929 10.2428 36.5979C12.8759 36.5979 14.4299 38.445 14.4299 41.0698V47.1789Z" fill="#D6DBDF"/>
<path d="M59.7911 44.3669C59.4053 44.9282 58.8384 45.208 58.0982 45.208C57.3579 45.208 56.8011 44.9258 56.4364 44.3621C56.0718 43.7985 55.8898 42.9748 55.8898 42.0354C55.8898 41.1634 56.0689 40.433 56.4271 39.8442C56.7852 39.2554 57.3485 38.9608 58.1169 38.9603C58.6027 38.9541 59.0743 39.1267 59.4444 39.4462C60.0636 39.9829 60.3736 40.9438 60.3736 42.1892C60.3736 43.0797 60.1802 43.8056 59.7934 44.3669M62.9622 33.4117C62.9622 33.4117 60.301 33.1232 60.301 35.2929V38.1667C60.0186 37.698 59.6229 37.3102 59.1516 37.0402C58.6553 36.7635 58.0965 36.6233 57.5305 36.6335C56.2118 36.6335 55.1579 37.1316 54.3687 38.1279C53.5808 39.1267 53.188 40.5632 53.188 42.3002C53.188 43.8085 53.5881 45.0442 54.3882 46.0071C55.1902 46.9688 56.7605 47.3913 58.1544 47.3913C63.0177 47.3913 62.9615 43.1571 62.9615 43.1571L62.9622 33.4117Z" fill="#D6DBDF"/>
<path d="M47.4087 55.0454C47.7768 54.6612 48.2942 54.4691 48.9611 54.4691C49.5733 54.4691 50.0871 54.6501 50.5025 55.0121C50.918 55.3742 51.1491 55.9045 51.196 56.6032H46.7153C46.81 55.9468 47.0412 55.4265 47.4087 55.0422M50.9273 59.9907C50.8272 60.1415 50.7063 60.2768 50.5681 60.3926C50.198 60.7018 49.6772 60.8167 49.0845 60.8167C48.5254 60.8167 48.0873 60.7303 47.6914 60.4758C47.037 60.0689 46.6903 59.3588 46.6512 58.3457H53.8962C53.9064 57.4736 53.8783 56.8069 53.808 56.3432C53.7041 55.5951 53.4336 54.881 53.017 54.255C52.5953 53.6018 51.9996 53.0835 51.299 52.7607C50.5622 52.436 49.7658 52.2739 48.9626 52.285C47.5024 52.285 46.3194 52.752 45.4034 53.6842C44.4874 54.6165 44.033 55.969 44.033 57.7131C44.033 59.5798 44.5392 60.9274 45.5518 61.7561C46.5388 62.5765 47.7793 63.0167 49.0548 62.9992C50.6561 62.9992 51.9027 62.5082 52.7944 61.5262C53.2747 61.0094 53.5753 60.4957 53.7041 59.993L50.9273 59.9907Z" fill="#D6DBDF"/>
<path d="M43.5285 52.3017C43.4942 52.3017 43.4504 52.3017 43.4044 52.3017C37.5821 52.3017 37.9273 57.5339 37.9273 57.5339V62.7662H40.5698V57.8582C40.5698 57.0416 40.6708 56.437 40.8728 56.0443C41.2335 55.3467 41.9423 54.9974 42.9991 54.9963C43.0772 54.9963 43.1826 54.9963 43.3114 55.0082C43.4403 55.0201 43.5879 55.0248 43.7542 55.0439V52.3152C43.6371 52.3088 43.5621 52.3057 43.5285 52.3017Z" fill="#D6DBDF"/>
<path d="M20.0999 50.9405V62.7416H22.5784V49.0157C22.5784 49.0157 20.0999 48.9134 20.0999 50.9405Z" fill="#D6DBDF"/>
<path d="M27.2566 51.6643H24.6016V48.9966H27.2566V51.6643Z" fill="#D6DBDF"/>
<path d="M24.6031 62.7606H27.262V52.5736H24.6031V62.7606Z" fill="#D6DBDF"/>
<path d="M34.3696 62.7392H31.6967L28.1898 52.572H30.9791L32.9734 59.7204L34.7413 53.4885C34.9444 52.8764 35.3463 52.571 35.947 52.572H37.907L34.3696 62.7392Z" fill="#D6DBDF"/>
</g>
<defs>
<clipPath id="clip0_394_577">
<rect width="74" height="63" fill="white"/>
</clipPath>
</defs>
</svg>
