<svg width="74" height="43" viewBox="0 0 74 43" fill="none" xmlns="http://www.w3.org/2000/svg">
<g clip-path="url(#clip0_394_601)">
<path d="M13.3581 4.50637C15.6982 1.97732 18.8023 0.5 22.4489 0.5C29.5531 0.5 34.2632 5.83589 35.1643 13.8294C35.4565 16.4253 35.4538 20.0851 35.4509 24.3241C35.4503 24.7588 35.4503 25.1997 35.4503 25.6461V41.5261H25.6808V29.7807C25.6808 29.7807 25.6609 19.7284 25.6012 17.8496C25.339 9.66719 20.6301 4.52575 13.3572 4.52022C11.1629 6.90511 9.98719 9.82106 9.81379 14.2796C9.78995 14.9015 9.79595 17.1057 9.80386 20.0108C9.80796 21.516 9.81256 23.2094 9.81379 24.9683C9.82103 32.624 9.81379 41.5278 9.81379 41.5278H0.0442307V23.4518C0.0442307 22.8324 0.0332502 22.2078 0.0222445 21.5807C8.73566e-05 20.3192 -0.0222454 19.0481 0.0442307 17.7894C0.15461 15.6911 0.507462 13.6283 1.45925 11.7121C3.63789 7.32215 8.10193 4.49561 12.8609 4.49561C13.0272 4.49561 13.1936 4.49982 13.3581 4.50637Z" fill="#D6DBDF"/>
<path d="M73.9557 25.2108C74.0222 23.9521 73.9999 22.6808 73.9778 21.4195C73.9667 20.7924 73.9557 20.1678 73.9557 19.5484V1.4724H64.1863C64.1863 1.4724 64.179 10.3762 64.1863 18.0318C64.1875 19.7907 64.1921 21.484 64.1962 22.9891C64.2041 25.8944 64.2101 28.0986 64.1863 28.7205C64.0129 33.1792 62.8371 36.095 60.6429 38.48C53.3701 38.4748 48.6614 33.3329 48.3991 25.1506C48.3394 23.2719 48.3141 18.6097 48.3141 13.2101V1.46472L38.5518 1.4739V17.354C38.5518 17.8003 38.5513 18.2411 38.5513 18.6759C38.5482 22.9149 38.5457 26.5746 38.8378 29.1706C39.7371 37.1641 44.4472 42.5 51.5513 42.5C55.1981 42.5 58.3021 41.0226 60.6422 38.4936C60.8067 38.5001 60.9729 38.5041 61.1391 38.5041C65.8981 38.5041 70.3622 35.6776 72.5409 31.2877C73.4927 29.3713 73.8455 27.3087 73.9558 25.2104L73.9557 25.2108Z" fill="#D6DBDF"/>
</g>
<defs>
<clipPath id="clip0_394_601">
<rect width="74" height="42" fill="white" transform="translate(0 0.5)"/>
</clipPath>
</defs>
</svg>
