<svg width="74" height="39" viewBox="0 0 74 39" fill="none" xmlns="http://www.w3.org/2000/svg">
<g clip-path="url(#clip0_394_597)">
<path fill-rule="evenodd" clip-rule="evenodd" d="M14.0221 32.2043C9.80078 32.2043 6.88952 28.6867 6.88952 23.4851C6.88952 18.2327 9.80078 14.7151 14.0221 14.7151C18.2434 14.7151 21.1539 18.2327 21.1539 23.435C21.1539 28.6867 18.2426 32.2043 14.0221 32.2043ZM14.0221 38.7947C21.8334 38.7947 28.0434 32.2567 28.0434 23.438C28.0434 14.7181 22.1727 8.12842 14.0221 8.12842C6.21004 8.12538 0 14.6657 0 23.4851C0 32.3533 5.87069 38.7947 14.0221 38.7947Z" fill="#D6DBDF"/>
<path fill-rule="evenodd" clip-rule="evenodd" d="M33.817 27.1016H47.2085C48.1303 27.1016 48.6607 26.5565 48.6607 25.6146V21.3048C48.6607 20.3636 48.1257 19.8185 47.2085 19.8185H38.2325V1.48626C38.2325 0.545088 37.6974 0 36.7803 0H32.3618C31.44 0 30.9096 0.545088 30.9096 1.48626V24.1291C30.9096 26.0608 31.9284 27.1016 33.8201 27.1016" fill="#D6DBDF"/>
<path fill-rule="evenodd" clip-rule="evenodd" d="M52.0123 38.3477L60.0658 28.8889L67.8771 38.3515C68.5566 39.1946 69.4302 39.1946 70.206 38.5036L73.3603 35.6793C74.1361 34.986 74.2331 34.0942 73.5055 33.3013L64.8206 23.3855L72.729 14.3182C73.4084 13.5261 73.3603 12.683 72.5837 11.9402L69.6243 9.21554C68.8478 8.47203 67.9742 8.52145 67.2947 9.36759L60.0658 17.9354L52.691 9.36379C52.0123 8.57086 51.1386 8.47203 50.3621 9.21174L47.3049 11.9858C46.5283 12.7293 46.4802 13.5223 47.2078 14.3638L55.2598 23.435L46.4779 33.394C45.7495 34.2356 45.8465 35.0779 46.6231 35.772L49.6803 38.4967C50.4569 39.1908 51.3305 39.1406 52.0092 38.3447" fill="#D6DBDF"/>
</g>
<defs>
<clipPath id="clip0_394_597">
<rect width="74" height="39" fill="white"/>
</clipPath>
</defs>
</svg>
