<svg width="138" height="19" viewBox="0 0 138 19" fill="none" xmlns="http://www.w3.org/2000/svg">
<path fill-rule="evenodd" clip-rule="evenodd" d="M0 18.5037V0.496216H18.0772V18.5037H15.393V18.503L15.3923 18.5037L8.94751 12.0837L10.8578 10.1817L15.393 14.6997V3.16921H2.6925V15.8127H8.184V18.5037H0Z" fill="#D6DBDF"/>
<path d="M38.0048 9.12496C37.9925 7.64901 37.5422 6.20996 36.711 4.99021C35.8781 3.76824 34.7022 2.81997 33.3315 2.26472C31.959 1.70851 30.4529 1.56946 29.0018 1.86496C27.5517 2.15968 26.2211 2.87616 25.1768 3.92446C24.1346 4.97073 23.4262 6.30268 23.1413 7.75171C22.857 9.19957 23.0091 10.6993 23.5785 12.0605C24.1492 13.4238 25.1109 14.5875 26.3423 15.4047C27.5756 16.2235 29.023 16.6602 30.5033 16.6602C31.8968 16.6677 33.2655 16.295 34.4625 15.5832L36.6503 17.7717L38.421 16.007L36.3308 13.916C37.4254 12.5602 38.0169 10.8674 38.0048 9.12496ZM32.5935 13.73C31.9455 14.054 31.2285 14.2175 30.5033 14.207C27.669 14.207 25.8353 11.966 25.8353 9.12496C25.8353 6.28396 27.669 4.04296 30.5033 4.04296C33.3375 4.04296 35.1713 6.30196 35.1713 9.12496C35.1793 10.1189 34.9289 11.0979 34.4445 11.966L32.301 9.83071L30.5303 11.5955L30.6278 11.693L32.5935 13.7307V13.73ZM46.0298 11.5692C46.0298 13.2365 45.0728 14.498 43.647 14.498C42.3893 14.498 41.7518 13.616 41.7518 11.9217V6.08146H39.192V12.257C39.192 15.116 40.2818 16.6685 42.735 16.6685C43.4418 16.637 44.1261 16.4112 44.7128 16.016C45.2987 15.6207 45.7636 15.0709 46.056 14.4275V16.3602H48.6338V6.08146H46.0298V11.5692ZM52.9028 6.08146H50.343V16.3685H52.9028V6.08146ZM52.9028 1.92571H50.343V4.47571H52.9028V1.92571ZM60.4928 5.77247C59.7884 5.80537 59.1069 6.03221 58.5233 6.42796C57.9405 6.8229 57.4786 7.37174 57.189 8.01346V6.08146H54.6653V16.3685H57.225V10.8717C57.225 9.18721 58.11 7.95197 59.58 7.95197C60.8385 7.95197 61.671 8.83396 61.671 10.5192V16.3692H64.248V10.193C64.248 7.33396 62.946 5.78147 60.4928 5.78147M68.331 3.07246H65.79V13.8192C65.7483 14.1649 65.7862 14.5156 65.9007 14.8445C66.0152 15.1733 66.2034 15.4717 66.4508 15.7167C66.6986 15.963 66.9991 16.1497 67.3296 16.2627C67.6602 16.3757 68.0121 16.4122 68.3588 16.3692H71.184V14.1455H69.0765C68.9324 14.1642 68.7861 14.1334 68.6618 14.058C68.5375 13.9826 68.4426 13.8672 68.3925 13.7307C68.3599 13.6403 68.3484 13.5436 68.3588 13.448V8.15446H71.184V6.03721H68.3318V3.07246H68.331Z" fill="#D6DBDF"/>
<path d="M76.9754 5.74613C75.8808 5.70893 74.7999 5.99849 73.8704 6.57788C72.9426 7.15611 72.2087 7.99838 71.7629 8.99663C71.3176 9.9939 71.1817 11.1018 71.3726 12.1771C71.5635 13.2525 72.0726 14.2458 72.8339 15.0289C73.5972 15.8138 74.5766 16.354 75.6477 16.5808C76.7187 16.8075 77.8331 16.7106 78.8489 16.3024C79.8641 15.8943 80.7345 15.1926 81.3487 14.2871C81.9611 13.3833 82.289 12.3167 82.2899 11.2249C82.3246 10.5113 82.2123 9.79823 81.9601 9.12983C81.7078 8.46143 81.3211 7.85194 80.8237 7.33913C80.325 6.82482 79.7263 6.41808 79.0645 6.14398C78.4026 5.86988 77.6917 5.73423 76.9754 5.74538V5.74613ZM76.9754 14.3921C75.4702 14.3921 74.2477 13.2806 74.2477 11.2249C74.2477 9.16913 75.4702 8.03063 76.9754 8.03063C78.4814 8.03063 79.7212 9.16013 79.7212 11.2249C79.7212 13.2896 78.5077 14.3921 76.9754 14.3921ZM87.7987 1.96088L82.1924 16.3684H85.0709L86.3902 12.6806H92.4044L93.7417 16.3691H96.6202L90.9959 1.96088H87.7987ZM87.1522 10.5634L89.3842 4.38713L91.6424 10.5634H87.1522ZM103.13 5.77238C102.425 5.80653 101.743 6.0338 101.158 6.42938C100.574 6.82425 100.11 7.37229 99.8174 8.01338L99.8617 6.08138H97.3469V16.3684H99.9059V10.8716C99.9059 9.18713 100.792 7.95188 102.262 7.95188C103.52 7.95188 104.353 8.83388 104.353 10.5191V16.3691H106.93V10.1929C106.93 7.33388 105.628 5.78138 103.174 5.78138M116.248 7.82813C115.932 7.20332 115.448 6.67947 114.85 6.31608C114.252 5.95269 113.564 5.76433 112.864 5.77238C109.985 5.77238 108.046 8.29538 108.046 11.2429C108.046 14.1896 109.985 16.6774 112.864 16.6774C113.569 16.6674 114.26 16.4691 114.863 16.1029C115.466 15.737 115.959 15.2165 116.292 14.5954V16.3601H118.851V1.96088H116.292L116.248 7.82813ZM113.502 14.4544C113.104 14.4321 112.715 14.3307 112.357 14.1562C112 13.9817 111.68 13.7376 111.418 13.4381C111.156 13.1392 110.958 12.7909 110.833 12.4138C110.709 12.0367 110.662 11.6386 110.694 11.2429C110.645 10.6428 110.777 10.0419 111.073 9.51747C111.369 8.99309 111.815 8.56928 112.354 8.30063C112.712 8.12141 113.102 8.01486 113.502 7.98713C114.308 8.04766 115.058 8.42391 115.588 9.03413C116.118 9.64335 116.383 10.4378 116.327 11.2429C116.37 11.8404 116.233 12.4371 115.934 12.9559C115.634 13.4747 115.186 13.8919 114.647 14.1536C114.289 14.3283 113.9 14.4303 113.502 14.4536V14.4544ZM125.095 5.74613C122.261 5.74613 120.569 7.41338 120.241 8.93963L122.801 9.38963C122.953 8.92387 123.253 8.52071 123.655 8.24213C124.059 7.96329 124.543 7.82422 125.033 7.84613C125.311 7.83341 125.588 7.88031 125.846 7.98368C126.104 8.08705 126.337 8.24448 126.529 8.44538C126.72 8.64584 126.866 8.88521 126.956 9.14718C127.047 9.40914 127.08 9.68754 127.053 9.96338V11.2691C126.203 10.5325 125.103 10.1504 123.979 10.2019C121.81 10.2019 120.118 11.4101 120.118 13.3864C120.118 15.3634 121.543 16.6601 123.749 16.6601C124.404 16.6945 125.057 16.5618 125.646 16.2746C126.234 15.9878 126.74 15.5557 127.114 15.0191L127.053 16.3331H129.621V9.74363C129.621 7.19363 127.903 5.71163 125.095 5.71163V5.74613ZM124.803 14.7986C123.395 14.7986 122.74 14.1011 122.74 13.3601C122.74 12.6191 123.377 11.8511 124.803 11.8511C126.088 11.8511 127.097 12.4076 127.097 13.1921C127.097 13.9774 126.105 14.7986 124.803 14.7986ZM137.017 5.91338C136.257 5.9441 135.527 6.21806 134.935 6.69488C134.343 7.17076 133.921 7.82496 133.731 8.56013H133.66L133.801 6.03638H131.242V16.3241H133.801V12.0626C133.801 9.16013 135.334 8.33963 136.822 8.33963H138V5.97488C137.672 5.92005 137.34 5.89345 137.008 5.89538" fill="#D6DBDF"/>
</svg>
